<svg height="512pt" viewBox="-56 0 512 512" width="512pt" xmlns="http://www.w3.org/2000/svg"><path d="m280 143c5.519531 0 10-4.480469 10-10s-4.480469-10-10-10-10 4.480469-10 10 4.480469 10 10 10zm0 0"/><path d="m240 143c5.519531 0 10-4.480469 10-10s-4.480469-10-10-10-10 4.480469-10 10 4.480469 10 10 10zm0 0"/><path d="m200 143c5.519531 0 10-4.480469 10-10s-4.480469-10-10-10-10 4.480469-10 10 4.480469 10 10 10zm0 0"/><path d="m340 173v-100c0-5.523438-4.476562-10-10-10h-260c-5.523438 0-10 4.476562-10 10v100c0 5.523438 4.476562 10 10 10h260c5.523438 0 10-4.476562 10-10zm-20-10h-240v-80h240zm0 0"/><path d="m140 236c0-5.523438-4.476562-10-10-10h-60c-5.523438 0-10 4.476562-10 10v40c0 5.523438 4.476562 10 10 10h60c5.523438 0 10-4.476562 10-10zm-20 30h-40v-20h40zm0 0"/><path d="m240 236c0-5.523438-4.476562-10-10-10h-60c-5.523438 0-10 4.476562-10 10v40c0 5.523438 4.476562 10 10 10h60c5.523438 0 10-4.476562 10-10zm-20 30h-40v-20h40zm0 0"/><path d="m340 236c0-5.523438-4.476562-10-10-10h-60c-5.523438 0-10 4.476562-10 10v40c0 5.523438 4.476562 10 10 10h60c5.523438 0 10-4.476562 10-10zm-20 30h-40v-20h40zm0 0"/><path d="m140 316c0-5.523438-4.476562-10-10-10h-60c-5.523438 0-10 4.476562-10 10v40c0 5.523438 4.476562 10 10 10h60c5.523438 0 10-4.476562 10-10zm-20 30h-40v-20h40zm0 0"/><path d="m230 306h-60c-5.523438 0-10 4.476562-10 10v40c0 5.523438 4.476562 10 10 10h60c5.523438 0 10-4.476562 10-10v-40c0-5.523438-4.476562-10-10-10zm-10 40h-40v-20h40zm0 0"/><path d="m240 436v-40c0-5.523438-4.476562-10-10-10h-60c-5.523438 0-10 4.476562-10 10v40c0 5.523438 4.476562 10 10 10h60c5.523438 0 10-4.476562 10-10zm-20-10h-40v-20h40zm0 0"/><path d="m130 386h-60c-5.523438 0-10 4.476562-10 10v40c0 5.523438 4.476562 10 10 10h60c5.523438 0 10-4.476562 10-10v-40c0-5.523438-4.476562-10-10-10zm-10 40h-40v-20h40zm0 0"/><path d="m330 306h-60c-5.523438 0-10 4.476562-10 10v120c0 5.523438 4.476562 10 10 10h60c5.523438 0 10-4.476562 10-10v-120c0-5.523438-4.476562-10-10-10zm-10 120h-40v-100h40zm0 0"/><path d="m210 502c0 5.523438-4.476562 10-10 10s-10-4.476562-10-10 4.476562-10 10-10 10 4.476562 10 10zm0 0"/><path d="m30 512h125c5.523438 0 10-4.476562 10-10s-4.476562-10-10-10h-125c-5.515625 0-10-4.484375-10-10v-452c0-5.515625 4.484375-10 10-10h340c5.515625 0 10 4.484375 10 10v452c0 5.515625-4.484375 10-10 10h-125c-5.523438 0-10 4.476562-10 10s4.476562 10 10 10h125c16.542969 0 30-13.457031 30-30v-452c0-16.542969-13.457031-30-30-30h-340c-16.542969 0-30 13.457031-30 30v452c0 16.542969 13.457031 30 30 30zm0 0"/></svg>