<svg height="512pt" viewBox="0 0 512 512" width="512pt" xmlns="http://www.w3.org/2000/svg"><path d="m196 20c2.628906 0 5.210938-1.070312 7.070312-2.929688 1.859376-1.859374 2.929688-4.441406 2.929688-7.070312s-1.070312-5.210938-2.929688-7.070312c-1.859374-1.859376-4.441406-2.929688-7.070312-2.929688s-5.210938 1.070312-7.070312 2.929688c-1.859376 1.859374-2.929688 4.441406-2.929688 7.070312s1.070312 5.210938 2.929688 7.070312c1.859374 1.859376 4.441406 2.929688 7.070312 2.929688zm0 0"/><path d="m470 204h-78v-194c0-5.523438-4.476562-10-10-10h-146c-5.523438 0-10 4.476562-10 10s4.476562 10 10 10h136v184h-70c-23.160156 0-42 18.839844-42 42v24h-81.5c-5.523438 0-10 4.476562-10 10s4.476562 10 10 10h81.5v76h-81.5c-5.523438 0-10 4.476562-10 10s4.476562 10 10 10h81.5v58h-170c-5.523438 0-10 4.476562-10 10v8c0 16.542969-13.457031 30-30 30s-30-13.457031-30-30v-442h136c5.523438 0 10-4.476562 10-10s-4.476562-10-10-10h-146c-5.523438 0-10 4.476562-10 10v452c0 27.570312 22.429688 50 50 50h420c23.160156 0 42-18.839844 42-42v-224c0-23.160156-18.839844-42-42-42zm-370.050781 260h160.050781v6c0 8.0625 2.289062 15.597656 6.242188 22h-176.269532c5.917969-7.863281 9.5625-17.523438 9.976563-28zm392.050781 6c0 12.132812-9.867188 22-22 22h-168c-12.132812 0-22-9.867188-22-22v-224c0-12.132812 9.867188-22 22-22h168c12.132812 0 22 9.867188 22 22zm0 0"/><path d="m458 248h-144.042969c-5.519531 0-10 4.476562-10 10v56c0 5.523438 4.480469 10 10 10h144.042969c5.523438 0 10-4.476562 10-10v-56c0-5.523438-4.476562-10-10-10zm-10 56h-124.042969v-36h124.042969zm0 0"/><path d="m333 340h-19.042969c-5.519531 0-10 4.476562-10 10s4.480469 10 10 10h19.042969c5.523438 0 10-4.476562 10-10s-4.476562-10-10-10zm0 0"/><path d="m395.5 340h-19.042969c-5.519531 0-10 4.476562-10 10s4.480469 10 10 10h19.042969c5.523438 0 10-4.476562 10-10s-4.476562-10-10-10zm0 0"/><path d="m458 340h-19.042969c-5.519531 0-10 4.476562-10 10s4.480469 10 10 10h19.042969c5.523438 0 10-4.476562 10-10s-4.476562-10-10-10zm0 0"/><path d="m333 376.667969h-19.042969c-5.519531 0-10 4.476562-10 10 0 5.523437 4.480469 10 10 10h19.042969c5.523438 0 10-4.476563 10-10 0-5.523438-4.476562-10-10-10zm0 0"/><path d="m395.5 376.667969h-19.042969c-5.519531 0-10 4.476562-10 10 0 5.523437 4.480469 10 10 10h19.042969c5.523438 0 10-4.476563 10-10 0-5.523438-4.476562-10-10-10zm0 0"/><path d="m458 376.667969h-19.042969c-5.519531 0-10 4.476562-10 10 0 5.523437 4.480469 10 10 10h19.042969c5.523438 0 10-4.476563 10-10 0-5.523438-4.476562-10-10-10zm0 0"/><path d="m333 413.332031h-19.042969c-5.519531 0-10 4.476563-10 10 0 5.523438 4.480469 10 10 10h19.042969c5.523438 0 10-4.476562 10-10 0-5.523437-4.476562-10-10-10zm0 0"/><path d="m395.5 413.332031h-19.042969c-5.519531 0-10 4.476563-10 10 0 5.523438 4.480469 10 10 10h19.042969c5.523438 0 10-4.476562 10-10 0-5.523437-4.476562-10-10-10zm0 0"/><path d="m458 413.332031h-19.042969c-5.519531 0-10 4.476563-10 10 0 5.523438 4.480469 10 10 10h19.042969c5.523438 0 10-4.476562 10-10 0-5.523437-4.476562-10-10-10zm0 0"/><path d="m333 450h-19.042969c-5.519531 0-10 4.476562-10 10s4.480469 10 10 10h19.042969c5.523438 0 10-4.476562 10-10s-4.476562-10-10-10zm0 0"/><path d="m395.5 450h-19.042969c-5.519531 0-10 4.476562-10 10s4.480469 10 10 10h19.042969c5.523438 0 10-4.476562 10-10s-4.476562-10-10-10zm0 0"/><path d="m458 450h-19.042969c-5.519531 0-10 4.476562-10 10s4.480469 10 10 10h19.042969c5.523438 0 10-4.476562 10-10s-4.476562-10-10-10zm0 0"/><path d="m122 64c0-5.523438-4.476562-10-10-10h-48c-5.523438 0-10 4.476562-10 10v48c0 5.523438 4.476562 10 10 10h48c5.523438 0 10-4.476562 10-10zm-20 38h-28v-28h28zm0 0"/><path d="m122 160c0-5.523438-4.476562-10-10-10h-48c-5.523438 0-10 4.476562-10 10v48c0 5.523438 4.476562 10 10 10h48c5.523438 0 10-4.476562 10-10zm-20 38h-28v-28h28zm0 0"/><path d="m122 256c0-5.523438-4.476562-10-10-10h-48c-5.523438 0-10 4.476562-10 10v48c0 5.523438 4.476562 10 10 10h48c5.523438 0 10-4.476562 10-10zm-20 38h-28v-28h28zm0 0"/><path d="m112 342h-48c-5.523438 0-10 4.476562-10 10v48c0 5.523438 4.476562 10 10 10h48c5.523438 0 10-4.476562 10-10v-48c0-5.523438-4.476562-10-10-10zm-10 48h-28v-28h28zm0 0"/><path d="m178.5 98h122.5c5.523438 0 10-4.476562 10-10s-4.476562-10-10-10h-122.5c-5.523438 0-10 4.476562-10 10s4.476562 10 10 10zm0 0"/><path d="m178.5 194h122.5c5.523438 0 10-4.476562 10-10s-4.476562-10-10-10h-122.5c-5.523438 0-10 4.476562-10 10s4.476562 10 10 10zm0 0"/></svg>