<svg height="682pt" viewBox="-21 -50 682.66534 682" width="682pt" xmlns="http://www.w3.org/2000/svg"><path d="m193.265625 216.753906h-95.152344c-6.992187 0-12.660156 5.667969-12.660156 12.664063v75.960937c0 6.992188 5.667969 12.664063 12.660156 12.664063h95.152344c6.992187 0 12.660156-5.671875 12.660156-12.664063v-75.960937c.007813-6.996094-5.667969-12.664063-12.660156-12.664063zm-12.660156 75.960938h-69.828125v-50.640625h69.828125zm0 0"/><path d="m339.8125 216.753906h-95.148438c-6.992187 0-12.664062 5.667969-12.664062 12.664063v75.960937c0 6.992188 5.671875 12.664063 12.664062 12.664063h95.148438c6.992188 0 12.664062-5.671875 12.664062-12.664063v-75.960937c0-6.996094-5.671874-12.664063-12.664062-12.664063zm-12.660156 75.960938h-69.828125v-50.640625h69.828125zm0 0"/><path d="m391.207031 318.042969h95.148438c6.992187 0 12.660156-5.675781 12.660156-12.667969v-75.960938c0-6.992187-5.667969-12.660156-12.660156-12.660156h-95.148438c-6.992187 0-12.664062 5.667969-12.664062 12.660156v75.960938c0 6.996094 5.671875 12.667969 12.664062 12.667969zm12.660157-75.960938h69.828124v50.632813h-69.828124zm0 0"/><path d="m193.265625 341.375h-95.152344c-6.992187 0-12.660156 5.671875-12.660156 12.664062v75.964844c0 6.992188 5.667969 12.660156 12.660156 12.660156h95.152344c6.992187 0 12.660156-5.667968 12.660156-12.660156v-75.964844c.007813-6.992187-5.667969-12.664062-12.660156-12.664062zm-12.660156 75.964844h-69.828125v-50.636719h69.828125zm0 0"/><path d="m339.8125 341.375h-95.148438c-6.992187 0-12.664062 5.671875-12.664062 12.664062v75.964844c0 6.992188 5.671875 12.660156 12.664062 12.660156h95.148438c6.992188 0 12.664062-5.667968 12.664062-12.660156v-75.964844c0-6.992187-5.671874-12.664062-12.664062-12.664062zm-12.660156 75.964844h-69.828125v-50.636719h69.828125zm0 0"/><path d="m586.78125 41.625c0-6.992188-5.667969-12.660156-12.660156-12.660156h-107.382813v-18.433594c0-16.253906-25.328125-16.277344-25.328125 0v18.433594h-82.566406v-18.433594c0-16.253906-25.324219-16.277344-25.324219 0v18.433594h-82.566406v-18.433594c0-16.253906-25.324219-16.277344-25.324219 0v18.433594h-82.566406v-18.433594c0-16.253906-25.324219-16.277344-25.324219 0v18.433594h-105.078125c-6.992187 0-12.660156 5.667968-12.660156 12.660156v470.347656c0 6.992188 5.667969 12.660156 12.660156 12.660156h414.769532c20.222656 32.835938 56.496093 54.777344 97.796874 54.777344 63.289063 0 114.773438-51.492187 114.773438-114.773437 0-40.652344-21.246094-76.433594-53.21875-96.824219zm-561.460938 457.6875v-340.3125h51.597657c16.261719 0 16.285156-25.328125 0-25.328125h-51.597657v-79.382813h92.417969v28.90625c0 16.257813 25.324219 16.28125 25.324219 0v-28.90625h82.566406v28.90625c0 16.257813 25.324219 16.28125 25.324219 0v-28.90625h82.566406v28.90625c0 16.257813 25.324219 16.28125 25.324219 0v-28.90625h82.566406v28.90625c0 16.257813 25.328125 16.28125 25.328125 0v-28.90625h94.71875v79.382813h-382.394531c-16.261719 0-16.285156 25.328125 0 25.328125h382.394531v196.730469c-11.394531-3.796875-23.574219-5.863281-36.230469-5.863281-9.03125 0-17.824218 1.054687-26.261718 3.039062-.578125-6.460938-5.996094-11.53125-12.609375-11.53125h-95.148438c-6.992187 0-12.664062 5.671875-12.664062 12.664062v75.964844c0 6.992188 5.671875 12.660156 12.664062 12.660156h21.375c-1.386719 7.117188-2.117187 14.460938-2.117187 21.972657 0 12.082031 1.878906 23.726562 5.355468 34.675781zm395.34375-81.972656h-16.796874v-50.636719h61.585937c-19.539063 11.96875-35.242187 29.621094-44.789063 50.636719zm104.5625 136.742187c-49.3125 0-89.441406-40.121093-89.441406-89.445312s40.121094-89.445313 89.441406-89.445313c49.324219 0 89.449219 40.121094 89.449219 89.445313s-40.125 89.445312-89.449219 89.445312zm0 0"/><path d="m525.226562 403.828125c-6.992187 0-12.660156 5.667969-12.660156 12.660156v56.703125c0 16.261719 25.328125 16.285156 25.328125 0v-56.703125c0-6.992187-5.675781-12.660156-12.667969-12.660156zm0 0"/><path d="m525.226562 503.105469c-6.765624 0-12.546874 5.671875-12.636718 12.445312-.089844 7.027344 5.664062 12.828125 12.671875 12.835938 6.984375.007812 12.769531-5.929688 12.621093-12.917969-.140624-6.71875-5.9375-12.363281-12.65625-12.363281zm0 0"/><path d="m127.992188 159c6.773437 0 12.554687-5.675781 12.640624-12.445312.09375-7.027344-5.664062-12.828126-12.667968-12.839844-6.988282-.007813-12.765625 5.933594-12.625 12.921875.136718 6.722656 5.933594 12.363281 12.652344 12.363281zm0 0"/></svg>