<?xml version="1.0" encoding="iso-8859-1"?>
<!-- Generator: Adobe Illustrator 19.0.0, SVG Export Plug-In . SVG Version: 6.00 Build 0)  -->
<svg version="1.1" id="Capa_1" xmlns="http://www.w3.org/2000/svg" xmlns:xlink="http://www.w3.org/1999/xlink" x="0px" y="0px"
	 viewBox="0 0 512 512" style="enable-background:new 0 0 512 512;" xml:space="preserve">
<g>
	<g>
		<path d="M256,452c-5.52,0-10,4.48-10,10c0,5.52,4.48,10,10,10s10-4.48,10-10C266,456.48,261.52,452,256,452z"/>
	</g>
</g>
<g>
	<g>
		<path d="M456,40h-20V30c0-16.575-13.424-30-30-30c-16.542,0-30,13.458-30,30v10h-40V30c0-16.575-13.424-30-30-30
			c-16.542,0-30,13.458-30,30v10h-40V30c0-16.576-13.425-30-30-30c-16.542,0-30,13.458-30,30v10h-40V30c0-16.576-13.425-30-30-30
			C89.458,0,76,13.458,76,30v10H56c-16.542,0-30,13.458-30,30c0,50.805,0,328.015,0,392c0,27.57,22.43,50,50,50h360
			c27.57,0,50-22.43,50-50c0-5.824,0-369.024,0-392C486,53.458,472.542,40,456,40z M396,30c0-5.514,4.486-10,10-10
			c5.52,0,10,4.478,10,10v10h-20V30z M296,30c0-5.514,4.486-10,10-10c5.52,0,10,4.478,10,10v10h-20V30z M196,30
			c0-5.514,4.486-10,10-10c5.521,0,10,4.478,10,10v10h-20V30z M96,30c0-5.514,4.486-10,10-10c5.521,0,10,4.478,10,10v10H96V30z
			 M466,422c0,16.542-13.458,30-30,30H296c-5.522,0-10,4.477-10,10s4.478,10,10,10h140c11.247,0,21.637-3.735,30-10.027V462
			c0,16.542-13.458,30-30,30H76c-16.542,0-30-13.458-30-30v-0.027C54.363,468.265,64.753,472,76,472h140c5.523,0,10-4.477,10-10
			s-4.477-10-10-10H76c-16.542,0-30-13.458-30-30c0-15.365,0-247.235,0-262h420C466,192.151,466,399.357,466,422z M466,140H46V70
			c0-5.514,4.486-10,10-10h20v10c0,16.542,13.458,30,30,30c5.523,0,10-4.477,10-10s-4.477-10-10-10c-5.514,0-10-4.486-10-10V60h80
			v10c0,16.542,13.458,30,30,30c5.523,0,10-4.477,10-10s-4.477-10-10-10c-5.514,0-10-4.486-10-10V60h80v10c0,16.542,13.458,30,30,30
			c5.522,0,10-4.477,10-10s-4.478-10-10-10c-5.514,0-10-4.486-10-10V60h80v10c0,16.542,13.458,30,30,30c5.522,0,10-4.477,10-10
			s-4.478-10-10-10c-5.514,0-10-4.486-10-10V60h40h20c5.514,0,10,4.486,10,10V140z"/>
	</g>
</g>
<g>
	<g>
		<path d="M156,206H96c-5.523,0-10,4.477-10,10v60c0,5.523,4.477,10,10,10h60c5.523,0,10-4.477,10-10v-60
			C166,210.477,161.523,206,156,206z M146,266h-40v-40h40V266z"/>
	</g>
</g>
<g>
	<g>
		<path d="M286,206h-60c-5.523,0-10,4.477-10,10v60c0,5.523,4.477,10,10,10h60c5.522,0,10-4.477,10-10v-60
			C296,210.477,291.522,206,286,206z M276,266h-40v-40h40V266z"/>
	</g>
</g>
<g>
	<g>
		<path d="M416,206h-60c-5.522,0-10,4.477-10,10v60c0,5.523,4.478,10,10,10h60c5.522,0,10-4.477,10-10v-60
			C426,210.477,421.522,206,416,206z M406,266h-40v-40h40V266z"/>
	</g>
</g>
<g>
	<g>
		<path d="M156,326H96c-5.523,0-10,4.477-10,10v60c0,5.523,4.477,10,10,10h60c5.523,0,10-4.477,10-10v-60
			C166,330.477,161.523,326,156,326z M146,386h-40v-40h40V386z"/>
	</g>
</g>
<g>
	<g>
		<path d="M286,326h-60c-5.523,0-10,4.477-10,10v60c0,5.523,4.477,10,10,10h60c5.522,0,10-4.477,10-10v-60
			C296,330.477,291.522,326,286,326z M276,386h-40v-40h40V386z"/>
	</g>
</g>
<g>
	<g>
		<path d="M416,326h-60c-5.522,0-10,4.477-10,10v60c0,5.523,4.478,10,10,10h60c5.522,0,10-4.477,10-10v-60
			C426,330.477,421.522,326,416,326z M406,386h-40v-40h40V386z"/>
	</g>
</g>
<g>
</g>
<g>
</g>
<g>
</g>
<g>
</g>
<g>
</g>
<g>
</g>
<g>
</g>
<g>
</g>
<g>
</g>
<g>
</g>
<g>
</g>
<g>
</g>
<g>
</g>
<g>
</g>
<g>
</g>
</svg>
